<svg xmlns="http://www.w3.org/2000/svg" width="1600" height="1000" viewBox="0 0 1600 1000" role="img" aria-label="Synthetic browser deck image slot surface">
  <rect width="1600" height="1000" fill="#f3f3f0"/>
  <g fill="none" stroke="#c9c9c2" stroke-width="1">
    <path d="M160 150H1440"/>
    <path d="M160 310H1440"/>
    <path d="M160 470H1440"/>
    <path d="M160 630H1440"/>
    <path d="M160 790H1440"/>
    <path d="M320 90V900"/>
    <path d="M560 90V900"/>
    <path d="M800 90V900"/>
    <path d="M1040 90V900"/>
    <path d="M1280 90V900"/>
  </g>
  <rect x="260" y="260" width="360" height="220" fill="#050505"/>
  <rect x="680" y="210" width="500" height="90" fill="#ffffff" stroke="#050505" stroke-width="6"/>
  <rect x="680" y="360" width="660" height="90" fill="#ffffff" stroke="#050505" stroke-width="6"/>
  <rect x="680" y="510" width="410" height="90" fill="#ffffff" stroke="#050505" stroke-width="6"/>
  <rect x="260" y="560" width="180" height="180" fill="#ffffff" stroke="#050505" stroke-width="6"/>
  <rect x="470" y="560" width="180" height="180" fill="#ffffff" stroke="#050505" stroke-width="6"/>
  <g fill="#050505" font-family="Arial, Helvetica, sans-serif" font-size="34" font-weight="700">
    <text x="705" y="268">LOCAL IMAGE SLOT</text>
    <text x="705" y="418">16:10 RATIO</text>
    <text x="705" y="568">AUDITABLE ASSET</text>
  </g>
</svg>
